<svg width="117" height="52" viewBox="0 0 117 52" fill="none" xmlns="http://www.w3.org/2000/svg">
<path d="M0 51.0352V0H20.7188C23.1055 0 25.4414 0.330078 27.7266 0.990234C30.0117 1.65039 32.0684 2.66602 33.8965 4.03711C35.7754 5.35742 37.248 7.05859 38.3145 9.14062C39.4316 11.2227 39.9902 13.6855 39.9902 16.5293C39.9902 19.6777 39.1523 22.3438 37.4766 24.5273C35.8516 26.6602 33.6934 28.2852 31.002 29.4023C28.3613 30.4688 25.5176 31.002 22.4707 31.002C21.709 31.002 20.7188 30.9258 19.5 30.7734C18.332 30.5703 17.0879 30.3672 15.7676 30.1641C14.4473 29.9102 13.2031 29.6816 12.0352 29.4785C10.918 29.2246 10.0547 29.0215 9.44531 28.8691V22.3945C10.8164 22.9023 12.3398 23.3086 14.0156 23.6133C15.7422 23.918 17.4688 24.0703 19.1953 24.0703C22.2422 24.0703 24.6543 23.3848 26.4316 22.0137C28.2598 20.6426 29.1738 18.8145 29.1738 16.5293C29.1738 14.041 28.209 12.1875 26.2793 10.9688C24.4004 9.75 22.0898 9.14062 19.3477 9.14062H10.5879V51.0352H0ZM28.3359 51.0352L9.44531 28.8691L18.5859 25.5938L42.2754 51.0352H28.3359ZM61.5469 51.0352L44.6367 0H56.6719L66.1172 32.2207L76.7812 0H83.8652L94.4531 32.2207L104.127 0H116.162L98.8711 51.0352H91.5586L80.2852 18.2051L68.8594 51.0352H61.5469Z" fill="white"/>
</svg>
